<?xml version="1.0" encoding="UTF-8" standalone="no"?>
<svg width="230px" height="152px" viewBox="0 0 230 152" version="1.1" xmlns="http://www.w3.org/2000/svg" xmlns:xlink="http://www.w3.org/1999/xlink">
    <!-- Generator: Sketch 3.7.2 (28276) - http://www.bohemiancoding.com/sketch -->
    <title>Group 3</title>
    <desc>Created with Sketch.</desc>
    <defs></defs>
    <g id="Page-1" stroke="none" stroke-width="1" fill="none" fill-rule="evenodd">
        <g id="Artboard-1" transform="translate(-1.000000, -2.000000)" fill="#FDBE00">
            <g id="Group-3" transform="translate(1.000000, 2.000000)">
                <path d="M229.115393,64.4154497 C232.588599,84.4299215 225.223383,104.135097 210.94769,118.669303 L216.515203,150.752292 L190.198934,136.782926 C187.5978,137.529098 171.514218,140.130557 168.785741,140.619403 C129.390679,147.677585 92.5223954,125.004887 86.4438529,89.9770745 C80.3653104,54.9492617 107.378442,20.8313044 146.773505,13.7731216 C186.168567,6.71493887 223.036851,29.3876368 229.115393,64.4154497" id="Shape"></path>
                <path d="M1.38440066,60.3524647 C-1.22295154,81.9293261 7.73017116,102.559285 23.7801147,117.272571 L19.6005563,151.860055 L46.9417394,135.44116 C49.7613598,136.090257 67.0850403,137.954243 70.02651,138.321221 C112.496869,143.619832 150.630118,117.303885 155.193309,79.5416963 C159.756499,41.7795075 129.021558,6.87155069 86.5511994,1.57293978 C44.0808403,-3.72567113 5.94759101,22.5902758 1.38440066,60.3524647" id="Shape"></path>
            </g>
        </g>
    </g>
</svg>