<?xml version="1.0" encoding="UTF-8" standalone="no"?>
<svg width="183px" height="171px" viewBox="0 0 183 171" version="1.1" xmlns="http://www.w3.org/2000/svg" xmlns:xlink="http://www.w3.org/1999/xlink">
    <!-- Generator: Sketch 3.7.2 (28276) - http://www.bohemiancoding.com/sketch -->
    <title>Group 5</title>
    <desc>Created with Sketch.</desc>
    <defs></defs>
    <g id="Page-1" stroke="none" stroke-width="1" fill="none" fill-rule="evenodd">
        <g id="Artboard-1" transform="translate(-3.000000, -5.000000)">
            <g id="Group-5" transform="translate(5.000000, 5.000000)">
                <path d="M0,76.4375 C0,98.6654967 11.8032467,118.46876 30.1875,131.368753 L30.1875,167 L56.3359375,146.875 C59.3244342,147.176743 77.4210065,146.875 80.5,146.875 C124.955993,146.875 161,115.339257 161,76.4375 C161,37.5357435 124.955993,6 80.5,6 C36.0440065,6 0,37.5357435 0,76.4375 Z" id="Shape" stroke="#FEBC06" stroke-width="4" fill="#FEBC06" transform="translate(80.500000, 86.500000) scale(-1, 1) translate(-80.500000, -86.500000) "></path>
                <circle id="Oval-1" fill="#FEBC06" cx="144" cy="37" r="37"></circle>
                <path d="M151.708852,14.445918 C151.631669,14.418548 151.475932,14.3810003 151.475932,14.3810003 L150.201295,17.5489485 C150.201295,17.5489485 150.427178,17.676523 150.553283,17.7214918 C160.586357,21.3020328 165.85465,32.4276885 162.296393,42.5202787 C160.518129,47.5630984 156.863143,51.5389672 152.097497,53.7084918 L155.066741,45.2875738 L151.810764,44.1250492 L147.57022,56.1551803 C147.251531,57.0596557 147.721359,58.053623 148.620424,58.3742295 L159.948117,62.4143934 L161.103687,59.1388197 L154.044174,56.6200164 C159.407469,54.0151967 163.520192,49.4415574 165.551507,43.6819344 C169.746277,31.7821311 163.536601,18.6668033 151.708852,14.445918 Z" id="Shape" fill="#FFFFFF"></path>
                <path d="M137.582919,58.0701311 C137.77465,58.1379016 138.738488,54.7945583 138.738488,54.7945583 C128.705414,51.2140164 123.437121,40.0892295 126.995378,29.9957705 C128.773643,24.9529508 132.428629,20.9762131 137.194274,18.8075574 L134.22503,27.2284754 L137.481008,28.391 L141.828321,15.3029297 L129.342791,10.099918 L128.187221,13.3754918 L135.247597,15.8951639 C129.884302,18.4999836 125.770716,23.0744918 123.740264,28.8341148 C119.545494,40.733918 125.75517,53.8492459 137.582919,58.0701311 Z" id="Shape" fill="#FFFFFF"></path>
                <circle id="Oval-2" fill="#FFFFFF" cx="43" cy="78" r="9"></circle>
                <circle id="Oval-2" fill="#FFFFFF" cx="83" cy="78" r="9"></circle>
                <circle id="Oval-2" fill="#FFFFFF" cx="123" cy="78" r="9"></circle>
            </g>
        </g>
    </g>
</svg>